<svg width="24" height="26" viewBox="0 0 24 26" fill="none" xmlns="http://www.w3.org/2000/svg">
<path d="M9.33333 20.8C9.68696 20.8 10.0261 20.663 10.2761 20.4192C10.5262 20.1754 10.6667 19.8448 10.6667 19.5V11.7C10.6667 11.3552 10.5262 11.0246 10.2761 10.7808C10.0261 10.537 9.68696 10.4 9.33333 10.4C8.97971 10.4 8.64057 10.537 8.39052 10.7808C8.14048 11.0246 8 11.3552 8 11.7V19.5C8 19.8448 8.14048 20.1754 8.39052 20.4192C8.64057 20.663 8.97971 20.8 9.33333 20.8ZM22.6667 5.2H17.3333V3.9C17.3333 2.86566 16.9119 1.87368 16.1618 1.14228C15.4116 0.410892 14.3942 0 13.3333 0H10.6667C9.6058 0 8.58838 0.410892 7.83824 1.14228C7.08809 1.87368 6.66667 2.86566 6.66667 3.9V5.2H1.33333C0.979711 5.2 0.640573 5.33696 0.390524 5.58076C0.140476 5.82456 0 6.15522 0 6.5C0 6.84478 0.140476 7.17544 0.390524 7.41924C0.640573 7.66304 0.979711 7.8 1.33333 7.8H2.66667V22.1C2.66667 23.1343 3.08809 24.1263 3.83824 24.8577C4.58839 25.5891 5.6058 26 6.66667 26H17.3333C18.3942 26 19.4116 25.5891 20.1618 24.8577C20.9119 24.1263 21.3333 23.1343 21.3333 22.1V7.8H22.6667C23.0203 7.8 23.3594 7.66304 23.6095 7.41924C23.8595 7.17544 24 6.84478 24 6.5C24 6.15522 23.8595 5.82456 23.6095 5.58076C23.3594 5.33696 23.0203 5.2 22.6667 5.2ZM9.33333 3.9C9.33333 3.55522 9.47381 3.22456 9.72386 2.98076C9.97391 2.73696 10.313 2.6 10.6667 2.6H13.3333C13.687 2.6 14.0261 2.73696 14.2761 2.98076C14.5262 3.22456 14.6667 3.55522 14.6667 3.9V5.2H9.33333V3.9ZM18.6667 22.1C18.6667 22.4448 18.5262 22.7754 18.2761 23.0192C18.0261 23.263 17.687 23.4 17.3333 23.4H6.66667C6.31304 23.4 5.97391 23.263 5.72386 23.0192C5.47381 22.7754 5.33333 22.4448 5.33333 22.1V7.8H18.6667V22.1ZM14.6667 20.8C15.0203 20.8 15.3594 20.663 15.6095 20.4192C15.8595 20.1754 16 19.8448 16 19.5V11.7C16 11.3552 15.8595 11.0246 15.6095 10.7808C15.3594 10.537 15.0203 10.4 14.6667 10.4C14.313 10.4 13.9739 10.537 13.7239 10.7808C13.4738 11.0246 13.3333 11.3552 13.3333 11.7V19.5C13.3333 19.8448 13.4738 20.1754 13.7239 20.4192C13.9739 20.663 14.313 20.8 14.6667 20.8Z" fill="#5E5E5E"/>
</svg>
